<svg xmlns="http://www.w3.org/2000/svg" viewBox="0 0 1280 780" width="1280" height="780" fill="none">
  <defs>
    <linearGradient id="bgGrad" x1="0" y1="0" x2="1280" y2="780" gradientUnits="userSpaceOnUse">
      <stop offset="0%" stop-color="#FCF9F8"/>
      <stop offset="100%" stop-color="#F6F3F2"/>
    </linearGradient>
    <linearGradient id="ctaGrad" x1="0" y1="0" x2="900" y2="120" gradientUnits="userSpaceOnUse">
      <stop offset="0%" stop-color="#F6F3F2"/>
      <stop offset="100%" stop-color="#FCECE6"/>
    </linearGradient>
    <filter id="cardShadow" x="-2%" y="-4%" width="104%" height="112%">
      <feDropShadow dx="0" dy="2" stdDeviation="4" flood-color="#1C1B1B" flood-opacity="0.05"/>
    </filter>
  </defs>

  <!-- Browser Window Frame -->
  <rect width="1280" height="780" rx="16" fill="url(#bgGrad)" stroke="#E5E2E1" stroke-width="2"/>
  <rect x="1" y="1" width="1278" height="38" rx="15" fill="#F0EDED"/>
  <line x1="0" y1="39" x2="1280" y2="39" stroke="#EAE7E7" stroke-width="1"/>
  <circle cx="24" cy="20" r="6" fill="#E57373"/>
  <circle cx="44" cy="20" r="6" fill="#FFB74D"/>
  <circle cx="64" cy="20" r="6" fill="#81C784"/>
  <rect x="420" y="9" width="440" height="22" rx="6" fill="#FFFFFF" stroke="#E5E2E1"/>
  <text x="640" y="24" text-anchor="middle" font-family="monospace" font-size="11" fill="#55433D">https://claude-architect-prep.app • CCA-F100 / P200 / S300 / E400</text>

  <!-- Left Sidebar -->
  <rect x="1" y="40" width="250" height="739" fill="#F6F3F2"/>
  <line x1="251" y1="40" x2="251" y2="779" stroke="#EAE7E7" stroke-width="1"/>

  <!-- Brand Logo -->
  <rect x="18" y="56" width="34" height="34" rx="9" fill="#D97757"/>
  <path d="M35 63 L37.2 70.8 L45 73 L37.2 75.2 L35 83 L32.8 75.2 L25 73 L32.8 70.8 Z" fill="#FFFFFF"/>
  <text x="62" y="72" font-family="Georgia, serif" font-size="16" font-weight="bold" fill="#1C1B1B">Claude Architect</text>
  <text x="62" y="86" font-family="monospace" font-size="9.5" font-weight="bold" fill="#99462A">CCA-F100 • FOUNDATIONS</text>

  <!-- Sidebar Readiness Widget -->
  <rect x="18" y="104" width="216" height="54" rx="10" fill="#F0EDED" stroke="#EAE7E7"/>
  <text x="28" y="121" font-family="monospace" font-size="9.5" fill="#55433D">ARCHITECT FOUNDATIONS</text>
  <text x="224" y="121" text-anchor="end" font-family="monospace" font-size="10" font-weight="bold" fill="#99462A">82% Prêt</text>
  <rect x="28" y="128" width="196" height="6" rx="3" fill="#E5E2E1"/>
  <rect x="28" y="128" width="161" height="6" rx="3" fill="#99462A"/>
  <text x="28" y="148" font-family="monospace" font-size="9" fill="#88726C">60 questions · 90 min · Seuil 750</text>

  <!-- Sidebar Navigation -->
  <text x="22" y="176" font-family="monospace" font-size="9" font-weight="bold" fill="#88726C">NAVIGATION</text>
  <rect x="18" y="184" width="216" height="30" rx="7" fill="#D97757"/>
  <text x="36" y="203" font-family="sans-serif" font-size="12" font-weight="bold" fill="#FFFFFF">Tableau de bord</text>

  <text x="36" y="232" font-family="sans-serif" font-size="12" fill="#55433D">Simulateur d'Examen</text>
  <text x="36" y="258" font-family="sans-serif" font-size="12" fill="#55433D">Analytique &amp; Scorecard</text>
  <text x="36" y="284" font-family="sans-serif" font-size="12" fill="#55433D">Flashcards Mémos (2 000)</text>
  <text x="36" y="310" font-family="sans-serif" font-size="12" fill="#55433D">Encyclopédie &amp; Glossaire</text>
  <text x="36" y="336" font-family="sans-serif" font-size="12" fill="#55433D">Lab Prompt &amp; MCP</text>

  <!-- Sidebar Certifications List -->
  <line x1="18" y1="354" x2="234" y2="354" stroke="#EAE7E7"/>
  <text x="22" y="372" font-family="monospace" font-size="9.5" font-weight="bold" fill="#99462A">CERTIFICATIONS (4)</text>

  <rect x="18" y="380" width="216" height="38" rx="7" fill="#FFFFFF" stroke="#D97757"/>
  <text x="26" y="395" font-family="monospace" font-size="9.5" font-weight="bold" fill="#99462A">CCA-F100 · Foundations</text>
  <text x="224" y="395" text-anchor="end" font-family="monospace" font-size="9.5" font-weight="bold" fill="#55433D">82% ✓</text>
  <text x="26" y="410" font-family="sans-serif" font-size="11" font-weight="bold" fill="#1C1B1B">Architect Foundations</text>

  <rect x="18" y="423" width="216" height="36" rx="7" fill="#F0EDED"/>
  <text x="26" y="437" font-family="monospace" font-size="9.5" font-weight="bold" fill="#99462A">CCA-P200 · Professional</text>
  <text x="224" y="437" text-anchor="end" font-family="monospace" font-size="9.5" fill="#55433D">64%</text>
  <text x="26" y="451" font-family="sans-serif" font-size="11" fill="#1C1B1B">Agentic &amp; MCP Engineer</text>

  <rect x="18" y="464" width="216" height="36" rx="7" fill="#F0EDED"/>
  <text x="26" y="478" font-family="monospace" font-size="9.5" font-weight="bold" fill="#99462A">CCA-S300 · Specialty</text>
  <text x="224" y="478" text-anchor="end" font-family="monospace" font-size="9.5" fill="#55433D">51%</text>
  <text x="26" y="492" font-family="sans-serif" font-size="11" fill="#1C1B1B">Security &amp; AI Governance</text>

  <rect x="18" y="505" width="216" height="36" rx="7" fill="#F0EDED"/>
  <text x="26" y="519" font-family="monospace" font-size="9.5" font-weight="bold" fill="#99462A">CCA-E400 · Expert</text>
  <text x="224" y="519" text-anchor="end" font-family="monospace" font-size="9.5" fill="#55433D">43%</text>
  <text x="26" y="533" font-family="sans-serif" font-size="11" fill="#1C1B1B">Principal Infra &amp; FinOps</text>

  <!-- Sidebar 5 Domains Summary -->
  <line x1="18" y1="552" x2="234" y2="552" stroke="#EAE7E7"/>
  <text x="22" y="570" font-family="monospace" font-size="9.5" font-weight="bold" fill="#99462A">5 DOMAINES DU SYLLABUS</text>
  <text x="22" y="590" font-family="monospace" font-size="9.5" fill="#1C1B1B">01. Architecture &amp; Context</text>
  <text x="228" y="590" text-anchor="end" font-family="monospace" font-size="9.5" font-weight="bold" fill="#99462A">94%</text>
  <text x="22" y="612" font-family="monospace" font-size="9.5" fill="#1C1B1B">02. Prompt &amp; XML</text>
  <text x="228" y="612" text-anchor="end" font-family="monospace" font-size="9.5" font-weight="bold" fill="#99462A">88%</text>
  <text x="22" y="634" font-family="monospace" font-size="9.5" fill="#1C1B1B">03. Tool Use &amp; MCP</text>
  <text x="228" y="634" text-anchor="end" font-family="monospace" font-size="9.5" font-weight="bold" fill="#D97757">76%</text>
  <text x="22" y="656" font-family="monospace" font-size="9.5" fill="#1C1B1B">04. Sécurité &amp; Alignement</text>
  <text x="228" y="656" text-anchor="end" font-family="monospace" font-size="9.5" font-weight="bold" fill="#99462A">85%</text>
  <text x="22" y="678" font-family="monospace" font-size="9.5" fill="#1C1B1B">05. FinOps, Latence &amp; Prod</text>
  <text x="228" y="678" text-anchor="end" font-family="monospace" font-size="9.5" font-weight="bold" fill="#BA1A1A">68%</text>

  <!-- Top Header Bar -->
  <rect x="252" y="40" width="1027" height="52" fill="#FCF9F8"/>
  <line x1="252" y1="92" x2="1279" y2="92" stroke="#EAE7E7" stroke-width="1"/>

  <!-- Hamburger Button + Active Track Pill -->
  <rect x="272" y="52" width="30" height="28" rx="6" fill="#FFFFFF" stroke="#EAE7E7"/>
  <line x1="280" y1="61" x2="294" y2="61" stroke="#55433D" stroke-width="1.8"/>
  <line x1="280" y1="66" x2="294" y2="66" stroke="#55433D" stroke-width="1.8"/>
  <line x1="280" y1="71" x2="294" y2="71" stroke="#55433D" stroke-width="1.8"/>

  <rect x="310" y="52" width="240" height="28" rx="7" fill="#F0EDED" stroke="#EAE7E7"/>
  <text x="324" y="70" font-family="monospace" font-size="10.5" font-weight="bold" fill="#99462A">CCA-F100 · Architect Foundations ▾</text>

  <text x="568" y="70" font-family="monospace" font-size="10.5" font-weight="bold" fill="#2E7D32">● Firestore Cloud Actif</text>

  <rect x="990" y="52" width="110" height="28" rx="7" fill="#F0EDED" stroke="#EAE7E7"/>
  <text x="1045" y="70" text-anchor="middle" font-family="monospace" font-size="10.5" font-weight="bold" fill="#1C1B1B">⚡ Test Rapide</text>

  <rect x="1110" y="52" width="142" height="28" rx="7" fill="#99462A"/>
  <text x="1181" y="70" text-anchor="middle" font-family="monospace" font-size="10.5" font-weight="bold" fill="#FFFFFF">▶ Lancer Examen</text>

  <!-- Main Content Area: Greeting -->
  <text x="280" y="122" font-family="monospace" font-size="10.5" font-weight="bold" fill="#99462A">CCA-F100 · CLAUDE CERTIFIED ARCHITECT — FOUNDATIONS · NIVEAU FOUNDATIONS</text>
  <text x="280" y="152" font-family="Georgia, serif" font-size="28" font-weight="bold" fill="#1C1B1B">Bienvenue, Éléonore.</text>
  <text x="280" y="174" font-family="sans-serif" font-size="13.5" fill="#55433D">Vous êtes à 82% de préparation. 2 000 Flashcards (500 par parcours) et simulateur d'examen synchronisés.</text>

  <!-- Countdown Card -->
  <rect x="1045" y="114" width="206" height="62" rx="12" fill="#F6F3F2" stroke="#EAE7E7"/>
  <text x="1060" y="136" font-family="monospace" font-size="9" fill="#88726C">DATE D'EXAMEN CIBLE</text>
  <text x="1060" y="156" font-family="Georgia, serif" font-size="14" font-weight="bold" fill="#1C1B1B">14 Novembre</text>
  <rect x="1182" y="124" width="58" height="42" rx="8" fill="#99462A"/>
  <text x="1211" y="140" text-anchor="middle" font-family="monospace" font-size="8" fill="#FFFFFF">ÉCHÉANCE</text>
  <text x="1211" y="158" text-anchor="middle" font-family="Georgia, serif" font-size="16" font-weight="bold" fill="#FFFFFF">J-12</text>

  <!-- Section: 4 Certifications Grid -->
  <text x="280" y="206" font-family="monospace" font-size="10" font-weight="bold" fill="#99462A">CATALOGUE OFFICIEL DES CERTIFICATIONS (2 000 FLASHCARDS • 500 PAR CERTIFICATION)</text>
  <text x="280" y="226" font-family="Georgia, serif" font-size="18" font-weight="bold" fill="#1C1B1B">Parcours de Certifications Claude Architect (4)</text>

  <!-- Cert Card 1 -->
  <rect x="280" y="238" width="232" height="150" rx="12" fill="#FFFFFF" stroke="#99462A" stroke-width="1.5" filter="url(#cardShadow)"/>
  <text x="294" y="258" font-family="monospace" font-size="10" font-weight="bold" fill="#99462A">CCA-F100 · Foundations</text>
  <text x="498" y="258" text-anchor="end" font-family="monospace" font-size="9.5" fill="#2E7D32">500 cartes</text>
  <text x="294" y="278" font-family="Georgia, serif" font-size="14" font-weight="bold" fill="#1C1B1B">Architect Foundations</text>
  <text x="294" y="296" font-family="sans-serif" font-size="10.5" fill="#55433D">Context 200k, Prompt Caching,</text>
  <text x="294" y="310" font-family="sans-serif" font-size="10.5" fill="#55433D">XML, Tool Use &amp; Production.</text>
  <text x="294" y="334" font-family="monospace" font-size="9.5" fill="#88726C">60 Qs · 90 min · Seuil 750</text>
  <rect x="294" y="344" width="204" height="5" rx="2.5" fill="#E5E2E1"/>
  <rect x="294" y="344" width="168" height="5" rx="2.5" fill="#99462A"/>
  <rect x="294" y="358" width="204" height="22" rx="5" fill="#99462A"/>
  <text x="396" y="373" text-anchor="middle" font-family="monospace" font-size="10" font-weight="bold" fill="#FFFFFF">✓ Parcours Actif (82%)</text>

  <!-- Cert Card 2 -->
  <rect x="524" y="238" width="232" height="150" rx="12" fill="#F6F3F2" stroke="#EAE7E7" filter="url(#cardShadow)"/>
  <text x="538" y="258" font-family="monospace" font-size="10" font-weight="bold" fill="#99462A">CCA-P200 · Professional</text>
  <text x="742" y="258" text-anchor="end" font-family="monospace" font-size="9.5" fill="#2E7D32">500 cartes</text>
  <text x="538" y="278" font-family="Georgia, serif" font-size="14" font-weight="bold" fill="#1C1B1B">Agentic &amp; MCP Engineer</text>
  <text x="538" y="296" font-family="sans-serif" font-size="10.5" fill="#55433D">Systèmes multi-agents, serveurs</text>
  <text x="538" y="310" font-family="sans-serif" font-size="10.5" fill="#55433D">MCP JSON-RPC &amp; Computer Use.</text>
  <text x="538" y="334" font-family="monospace" font-size="9.5" fill="#88726C">65 Qs · 120 min · Seuil 780</text>
  <rect x="538" y="344" width="204" height="5" rx="2.5" fill="#E5E2E1"/>
  <rect x="538" y="344" width="130" height="5" rx="2.5" fill="#99462A"/>
  <rect x="538" y="358" width="204" height="22" rx="5" fill="#EAE7E7"/>
  <text x="640" y="373" text-anchor="middle" font-family="monospace" font-size="10" font-weight="bold" fill="#1C1B1B">Choisir CCA-P200 (64%)</text>

  <!-- Cert Card 3 -->
  <rect x="768" y="238" width="232" height="150" rx="12" fill="#F6F3F2" stroke="#EAE7E7" filter="url(#cardShadow)"/>
  <text x="782" y="258" font-family="monospace" font-size="10" font-weight="bold" fill="#99462A">CCA-S300 · Specialty</text>
  <text x="986" y="258" text-anchor="end" font-family="monospace" font-size="9.5" fill="#2E7D32">500 cartes</text>
  <text x="782" y="278" font-family="Georgia, serif" font-size="14" font-weight="bold" fill="#1C1B1B">Security &amp; AI Governance</text>
  <text x="782" y="296" font-family="sans-serif" font-size="10.5" fill="#55433D">Prompt Injection, Constitutional</text>
  <text x="782" y="310" font-family="sans-serif" font-size="10.5" fill="#55433D">AI, ZDR, HIPAA/SOC2 &amp; DLP.</text>
  <text x="782" y="334" font-family="monospace" font-size="9.5" fill="#88726C">50 Qs · 90 min · Seuil 800</text>
  <rect x="782" y="344" width="204" height="5" rx="2.5" fill="#E5E2E1"/>
  <rect x="782" y="344" width="104" height="5" rx="2.5" fill="#99462A"/>
  <rect x="782" y="358" width="204" height="22" rx="5" fill="#EAE7E7"/>
  <text x="884" y="373" text-anchor="middle" font-family="monospace" font-size="10" font-weight="bold" fill="#1C1B1B">Choisir CCA-S300 (51%)</text>

  <!-- Cert Card 4 -->
  <rect x="1012" y="238" width="239" height="150" rx="12" fill="#F6F3F2" stroke="#EAE7E7" filter="url(#cardShadow)"/>
  <text x="1026" y="258" font-family="monospace" font-size="10" font-weight="bold" fill="#99462A">CCA-E400 · Expert</text>
  <text x="1236" y="258" text-anchor="end" font-family="monospace" font-size="9.5" fill="#2E7D32">500 cartes</text>
  <text x="1026" y="278" font-family="Georgia, serif" font-size="14" font-weight="bold" fill="#1C1B1B">Principal Infra &amp; FinOps</text>
  <text x="1026" y="296" font-family="sans-serif" font-size="10.5" fill="#55433D">Multi-Cloud Bedrock/Vertex,</text>
  <text x="1026" y="310" font-family="sans-serif" font-size="10.5" fill="#55433D">KV-Cache distribué &amp; Batch API.</text>
  <text x="1026" y="334" font-family="monospace" font-size="9.5" fill="#88726C">75 Qs · 150 min · Seuil 820</text>
  <rect x="1026" y="344" width="210" height="5" rx="2.5" fill="#E5E2E1"/>
  <rect x="1026" y="344" width="90" height="5" rx="2.5" fill="#99462A"/>
  <rect x="1026" y="358" width="210" height="22" rx="5" fill="#EAE7E7"/>
  <text x="1131" y="373" text-anchor="middle" font-family="monospace" font-size="10" font-weight="bold" fill="#1C1B1B">Choisir CCA-E400 (43%)</text>

  <!-- Section: 5 Official Domains -->
  <text x="280" y="418" font-family="monospace" font-size="10" font-weight="bold" fill="#99462A">RÉFÉRENTIEL DE COMPÉTENCES · 5 DOMAINES OFFICIELS DU SYLLABUS</text>
  <text x="280" y="438" font-family="Georgia, serif" font-size="18" font-weight="bold" fill="#1C1B1B">Maîtrise par Domaine, Flashcards Dédiées &amp; Drills</text>

  <!-- Domain 1 Row -->
  <rect x="280" y="450" width="640" height="56" rx="10" fill="#F6F3F2" stroke="#EAE7E7"/>
  <circle cx="310" cy="478" r="16" stroke="#99462A" stroke-width="3.5" fill="none"/>
  <text x="310" y="482" text-anchor="middle" font-family="monospace" font-size="9.5" font-weight="bold" fill="#1C1B1B">94%</text>
  <text x="338" y="470" font-family="monospace" font-size="9.5" font-weight="bold" fill="#99462A">DOMAINE 01 · PONDÉRATION 20% · 100 FLASHCARDS / CERT</text>
  <text x="338" y="488" font-family="Georgia, serif" font-size="14" font-weight="bold" fill="#1C1B1B">Architecture LLM &amp; Context Windows (200k, KV-Cache, Extended Thinking)</text>
  <rect x="810" y="464" width="98" height="28" rx="6" fill="#99462A"/>
  <text x="859" y="482" text-anchor="middle" font-family="monospace" font-size="9.5" font-weight="bold" fill="#FFFFFF">100 Cartes →</text>

  <!-- Domain 2 Row -->
  <rect x="280" y="514" width="640" height="56" rx="10" fill="#F6F3F2" stroke="#EAE7E7"/>
  <circle cx="310" cy="542" r="16" stroke="#99462A" stroke-width="3.5" fill="none"/>
  <text x="310" y="546" text-anchor="middle" font-family="monospace" font-size="9.5" font-weight="bold" fill="#1C1B1B">88%</text>
  <text x="338" y="534" font-family="monospace" font-size="9.5" font-weight="bold" fill="#99462A">DOMAINE 02 · PONDÉRATION 22% · 100 FLASHCARDS / CERT</text>
  <text x="338" y="552" font-family="Georgia, serif" font-size="14" font-weight="bold" fill="#1C1B1B">Prompt Engineering Avancé, Balises XML Canoniques &amp; Prefilling</text>
  <rect x="810" y="528" width="98" height="28" rx="6" fill="#99462A"/>
  <text x="859" y="546" text-anchor="middle" font-family="monospace" font-size="9.5" font-weight="bold" fill="#FFFFFF">100 Cartes →</text>

  <!-- Domain 3 Row -->
  <rect x="280" y="578" width="640" height="56" rx="10" fill="#F6F3F2" stroke="#EAE7E7"/>
  <circle cx="310" cy="606" r="16" stroke="#FC8D66" stroke-width="3.5" fill="none"/>
  <text x="310" y="610" text-anchor="middle" font-family="monospace" font-size="9.5" font-weight="bold" fill="#1C1B1B">76%</text>
  <text x="338" y="598" font-family="monospace" font-size="9.5" font-weight="bold" fill="#99462A">DOMAINE 03 · PONDÉRATION 24% · 100 FLASHCARDS / CERT</text>
  <text x="338" y="616" font-family="Georgia, serif" font-size="14" font-weight="bold" fill="#1C1B1B">Tool Use, Model Context Protocol (MCP) &amp; Orchestration Multi-Agents</text>
  <rect x="810" y="592" width="98" height="28" rx="6" fill="#99462A"/>
  <text x="859" y="610" text-anchor="middle" font-family="monospace" font-size="9.5" font-weight="bold" fill="#FFFFFF">100 Cartes →</text>

  <!-- Domain 4 Row -->
  <rect x="280" y="642" width="640" height="56" rx="10" fill="#F6F3F2" stroke="#EAE7E7"/>
  <circle cx="310" cy="670" r="16" stroke="#99462A" stroke-width="3.5" fill="none"/>
  <text x="310" y="674" text-anchor="middle" font-family="monospace" font-size="9.5" font-weight="bold" fill="#1C1B1B">85%</text>
  <text x="338" y="662" font-family="monospace" font-size="9.5" font-weight="bold" fill="#99462A">DOMAINE 04 · PONDÉRATION 16% · 100 FLASHCARDS / CERT</text>
  <text x="338" y="680" font-family="Georgia, serif" font-size="14" font-weight="bold" fill="#1C1B1B">Sécurité, Constitutional AI, Red-Teaming, HIPAA/SOC2 &amp; ZDR</text>
  <rect x="810" y="656" width="98" height="28" rx="6" fill="#99462A"/>
  <text x="859" y="674" text-anchor="middle" font-family="monospace" font-size="9.5" font-weight="bold" fill="#FFFFFF">100 Cartes →</text>

  <!-- Domain 5 Row -->
  <rect x="280" y="706" width="640" height="56" rx="10" fill="#F6F3F2" stroke="#EAE7E7"/>
  <circle cx="310" cy="734" r="16" stroke="#BA1A1A" stroke-width="3.5" fill="none"/>
  <text x="310" y="738" text-anchor="middle" font-family="monospace" font-size="9.5" font-weight="bold" fill="#BA1A1A">68%</text>
  <text x="338" y="726" font-family="monospace" font-size="9.5" font-weight="bold" fill="#99462A">DOMAINE 05 · PONDÉRATION 18% · 100 FLASHCARDS / CERT</text>
  <text x="338" y="744" font-family="Georgia, serif" font-size="14" font-weight="bold" fill="#1C1B1B">Optimisation FinOps, Message Batches (-50%), Latence TTFT &amp; Production</text>
  <rect x="810" y="720" width="98" height="28" rx="6" fill="#99462A"/>
  <text x="859" y="738" text-anchor="middle" font-family="monospace" font-size="9.5" font-weight="bold" fill="#FFFFFF">100 Cartes →</text>

  <!-- Right Column Widget: Encyclopédie & Lab Preview -->
  <rect x="936" y="450" width="315" height="312" rx="12" fill="#F6F3F2" stroke="#EAE7E7"/>
  <text x="954" y="476" font-family="monospace" font-size="10" font-weight="bold" fill="#99462A">ENCYCLOPÉDIE &amp; GLOSSAIRE IA</text>
  <text x="954" y="498" font-family="Georgia, serif" font-size="16" font-weight="bold" fill="#1C1B1B">Traités d'Architecture Liés</text>

  <rect x="954" y="512" width="279" height="64" rx="8" fill="#FFFFFF" stroke="#EAE7E7"/>
  <text x="966" y="530" font-family="monospace" font-size="9.5" font-weight="bold" fill="#99462A">DOMAINE 01 · KV-CACHE</text>
  <text x="966" y="548" font-family="Georgia, serif" font-size="13" font-weight="bold" fill="#1C1B1B">Prompt Caching &amp; Breakpoints</text>
  <text x="966" y="564" font-family="sans-serif" font-size="10" fill="#55433D">Réduction de 90% des coûts d'input &amp; TTFT</text>

  <rect x="954" y="586" width="279" height="64" rx="8" fill="#FFFFFF" stroke="#EAE7E7"/>
  <text x="966" y="604" font-family="monospace" font-size="9.5" font-weight="bold" fill="#99462A">DOMAINE 03 · PROTOCOLE MCP</text>
  <text x="966" y="622" font-family="Georgia, serif" font-size="13" font-weight="bold" fill="#1C1B1B">Model Context Protocol (JSON-RPC)</text>
  <text x="966" y="638" font-family="sans-serif" font-size="10" fill="#55433D">Resources, Prompts, Tools &amp; Sampling</text>

  <rect x="954" y="660" width="279" height="64" rx="8" fill="#FFFFFF" stroke="#EAE7E7"/>
  <text x="966" y="678" font-family="monospace" font-size="9.5" font-weight="bold" fill="#99462A">DOMAINE 04 · SÉCURITÉ</text>
  <text x="966" y="696" font-family="Georgia, serif" font-size="13" font-weight="bold" fill="#1C1B1B">Constitutional AI &amp; Défense RAG</text>
  <text x="966" y="712" font-family="sans-serif" font-size="10" fill="#55433D">Isolation XML, ZDR, HIPAA &amp; SOC 2 Type II</text>

  <text x="1093" y="746" text-anchor="middle" font-family="monospace" font-size="10" font-weight="bold" fill="#99462A">Explorer l'Encyclopédie complète →</text>
</svg>
